<?xml version="1.0" encoding="UTF-8" standalone="no"?>
<svg
   width="1024"
   height="1024"
   version="1.1"
   viewBox="0 0 270.93 270.93"
   id="svg37"
   sodipodi:docname="monument.svg"
   inkscape:version="1.1 (c68e22c387, 2021-05-23)"
   xmlns:inkscape="http://www.inkscape.org/namespaces/inkscape"
   xmlns:sodipodi="http://sodipodi.sourceforge.net/DTD/sodipodi-0.dtd"
   xmlns="http://www.w3.org/2000/svg"
   xmlns:svg="http://www.w3.org/2000/svg">
  <sodipodi:namedview
     id="namedview39"
     pagecolor="#505050"
     bordercolor="#ffffff"
     borderopacity="1"
     inkscape:pageshadow="0"
     inkscape:pageopacity="0"
     inkscape:pagecheckerboard="1"
     showgrid="false"
     inkscape:zoom="0.53515625"
     inkscape:cx="497.9854"
     inkscape:cy="512.93431"
     inkscape:window-width="1366"
     inkscape:window-height="705"
     inkscape:window-x="-8"
     inkscape:window-y="-8"
     inkscape:window-maximized="1"
     inkscape:current-layer="svg37" />
  <defs
     id="defs7">
    <linearGradient
       id="linearGradient10606"
       x2="272.07"
       y1=".54197"
       y2="271.53"
       gradientTransform="matrix(.99582 0 0 .99981 0 -.52906)"
       gradientUnits="userSpaceOnUse">
      <stop
         stop-color="#1d88ed"
         offset="0"
         id="stop2" />
      <stop
         stop-color="#076ac1"
         offset="1"
         id="stop4" />
    </linearGradient>
  </defs>
  <rect
     y=".012804"
     width="270.93"
     height="270.93"
     rx="0"
     ry="0"
     fill="url(#linearGradient10606)"
     fill-rule="evenodd"
     id="rect9" />
  <path
     d="m66.953 211.24 59.702 59.702h144.81v-143.52l-61.729-61.729"
     fill-opacity=".35646"
     stroke="#000"
     stroke-width=".26458px"
     id="path11"
     style="stroke:none" />
  <g
     fill="#fff"
     fill-rule="evenodd"
     stroke="#fff"
     stroke-linecap="square"
     stroke-linejoin="round"
     id="g35">
    <g
       stroke-width=".041041"
       id="g19">
      <path
         d="m170.49 100.45c-25.795-13.065-48.292-9.2068-70.037 0l33.969-61.26z"
         id="path13" />
      <path
         d="m191.92 134.52c-9.0014-27.478-27.637-40.658-49.524-49.524l67.337-19.298z"
         fill-opacity=".83732"
         stroke-opacity=".49"
         id="path15" />
      <path
         d="m81.751 131.71c9.0014-27.478 27.637-40.658 49.524-49.524l-67.337-19.298z"
         fill-opacity=".83732"
         stroke-opacity=".49282"
         id="path17" />
    </g>
    <g
       stroke-width=".041041"
       id="g27">
      <path
         d="m100.45 100.45c-13.065 25.795-9.2068 48.292 0 70.037l-61.26-33.969z"
         id="path21" />
      <path
         d="m170.49 100.45c13.065 25.795 9.2068 48.292 0 70.037l61.26-33.969z"
         id="path23" />
      <path
         d="m170.49 170.49c-25.795 13.065-48.292 9.2068-70.037 0l33.969 61.26z"
         id="path25" />
    </g>
    <path
       d="m186.66 141.07c-9.0014 27.478-27.637 40.658-49.524 49.524l67.337 19.298z"
       fill-opacity=".83732"
       stroke-opacity=".49282"
       stroke-width=".041041"
       id="path29" />
    <path
       d="m84.766 142.42c9.0014 27.478 27.637 40.658 49.524 49.524l-67.337 19.298z"
       fill-opacity=".83732"
       stroke-opacity=".49282"
       stroke-width=".041041"
       id="path31" />
    <path
       d="m137.94 91.197c9.9353 0.04468 20.251 2.1595 31.132 7.1898 1.3114 1.0302 2.5928 2.1033 3.8411 3.2242 11.828 24.656 8.6273 46.39 0.19487 67.356-1.2268 1.373-2.4961 2.6844-3.8041 3.9396-24.941 11.616-46.902 7.8895-68.134-0.94783-0.45789-0.48173-0.91127-0.97021-1.3582-1.4678-8.9418-21.56-12.586-43.879-0.22079-69.312 0.65844-0.65217 1.3265-1.2908 2.0053-1.9137 11.759-4.8542 23.745-8.1244 36.343-8.0677z"
       stroke-width="1.0247"
       id="path33" />
  </g>
</svg>
