<?xml version="1.0" encoding="UTF-8" standalone="no"?>
<!-- Created with Inkscape (http://www.inkscape.org/) -->

<svg
   width="484.42365"
   height="474.29291"
   viewBox="0 0 128.17042 125.49"
   version="1.1"
   id="svg1011"
   inkscape:version="1.1 (c68e22c387, 2021-05-23)"
   sodipodi:docname="favicon.svg"
   xmlns:inkscape="http://www.inkscape.org/namespaces/inkscape"
   xmlns:sodipodi="http://sodipodi.sourceforge.net/DTD/sodipodi-0.dtd"
   xmlns="http://www.w3.org/2000/svg"
   xmlns:svg="http://www.w3.org/2000/svg">
  <sodipodi:namedview
     id="namedview1013"
     pagecolor="#505050"
     bordercolor="#ffffff"
     borderopacity="1"
     inkscape:pageshadow="0"
     inkscape:pageopacity="0"
     inkscape:pagecheckerboard="1"
     inkscape:document-units="mm"
     showgrid="false"
     units="px"
     fit-margin-top="0"
     fit-margin-left="0"
     fit-margin-right="0"
     fit-margin-bottom="0"
     inkscape:zoom="0.72506067"
     inkscape:cx="247.56549"
     inkscape:cy="268.25342"
     inkscape:window-width="1366"
     inkscape:window-height="705"
     inkscape:window-x="-8"
     inkscape:window-y="-8"
     inkscape:window-maximized="1"
     inkscape:current-layer="layer1" />
  <defs
     id="defs1008">
    <filter
       id="filter1200"
       color-interpolation-filters="sRGB"
       x="-0.081944824"
       y="-0.02547933"
       width="1.3004644"
       height="1.0934242">
      <feFlood
         flood-color="rgb(0,0,0)"
         flood-opacity=".49804"
         result="flood"
         id="feFlood855" />
      <feComposite
         in="flood"
         in2="SourceGraphic"
         operator="in"
         result="composite1"
         id="feComposite857" />
      <feGaussianBlur
         in="composite1"
         result="blur"
         stdDeviation="1"
         id="feGaussianBlur859" />
      <feOffset
         dx="4"
         dy="4"
         result="offset"
         id="feOffset861" />
      <feComposite
         in="SourceGraphic"
         in2="offset"
         result="composite2"
         id="feComposite863" />
    </filter>
    <filter
       style="color-interpolation-filters:sRGB;"
       inkscape:label="Drop Shadow"
       id="filter2603"
       x="-0.076915159"
       y="-0.075035085"
       width="1.1680739"
       height="1.1639656">
      <feFlood
         flood-opacity="0.501961"
         flood-color="rgb(0,0,0)"
         result="flood"
         id="feFlood2593" />
      <feComposite
         in="flood"
         in2="SourceGraphic"
         operator="out"
         result="composite1"
         id="feComposite2595" />
      <feGaussianBlur
         in="composite1"
         stdDeviation="0.9"
         result="blur"
         id="feGaussianBlur2597" />
      <feOffset
         dx="0.4"
         dy="0.4"
         result="offset"
         id="feOffset2599" />
      <feComposite
         in="offset"
         in2="SourceGraphic"
         operator="in"
         result="composite2"
         id="feComposite2601" />
    </filter>
  </defs>
  <g
     inkscape:label="Layer 1"
     inkscape:groupmode="layer"
     id="layer1"
     transform="translate(59.440639,59.068043)">
    <rect
       x="-56.760216"
       y="-59.068043"
       width="125.49"
       height="125.49"
       rx="12.851"
       ry="14.906"
       fill="#253855"
       opacity="0.99483"
       id="rect868" />
    <rect
       x="22.04364"
       y="19.247925"
       width="40.976791"
       height="40.976791"
       rx="12.851617"
       ry="14.906721"
       fill="#f5f5f5"
       opacity="0.99483"
       id="rect872"
       style="stroke-width:0.82435" />
    <path
       transform="matrix(0.78231,0.90006,-0.90006,0.78231,53.282785,-212.35904)"
       d="m 89.921,101.03 v 78.234 l 14.644,15.647 14.644,-15.647 v -78.547 z"
       fill="#f5f5f5"
       filter="url(#filter1200)"
       id="path870" />
    <g
       transform="matrix(3.487,0,0,3.487,-179.10121,-410.80704)"
       fill="#253855"
       aria-label="M"
       id="g876">
      <path
         d="m 66.986,133.05 h -1.0232 v -6.6301 l -2.1394,4.5113 h -0.60978 l -2.1239,-4.5113 v 6.6301 h -0.95601 v -7.6946 h 1.3953 l 2.0515,4.284 1.9844,-4.284 h 1.4211 z"
         fill="#253855"
         stroke-width="0.26458"
         id="path874" />
    </g>
    <path
       d="m 52.582785,55.81296 -1.6703,-2.6615 1.8701,-0.94764 1.6978,0.94764 -1.8976,2.6615"
       fill="#253855"
       id="path878" />
    <path
       d="m 20.82806,-12.361484 a 0.45754741,0.45559218 0 0 1 0.01494,0.117704 v 6.1789341 a 0.45245726,0.45052379 0 0 1 -0.227361,0.39083 l -5.208348,2.985844 v 5.918196 c 0,0.16106 -0.08593,0.309735 -0.226219,0.390828 L 4.3090834,9.8527261 c -0.02489,0.01404 -0.05203,0.02309 -0.07917,0.03265 -0.01029,0.0034 -0.01989,0.0096 -0.03055,0.01235 a 0.45528514,0.45333958 0 0 1 -0.231884,0 c -0.0124,-0.0034 -0.02375,-0.01017 -0.03563,-0.01469 -0.02489,-0.0089 -0.0509,-0.01682 -0.07467,-0.03041 l -10.869705,-6.23187 a 0.45302285,0.45108696 0 0 1 -0.227359,-0.390829 V -15.306884 c 0,-0.04055 0.0055,-0.07996 0.01582,-0.118257 0.0034,-0.01298 0.01134,-0.02477 0.01582,-0.03774 0.0085,-0.02364 0.01646,-0.04787 0.02884,-0.06984 0.0085,-0.01469 0.02096,-0.02648 0.03111,-0.03999 0.01304,-0.01809 0.02489,-0.03661 0.04017,-0.05239 0.01303,-0.01298 0.02997,-0.02252 0.04467,-0.03378 0.01645,-0.01362 0.03111,-0.02816 0.04976,-0.03886 h 5.66e-4 l 5.435144,-3.115935 a 0.45358841,0.4516501 0 0 1 0.452456,0 l 5.435146,3.115935 h 0.0011 c 0.01817,0.01122 0.03337,0.02536 0.04977,0.03829 0.01474,0.01122 0.0311,0.02139 0.04412,0.03377 0.01582,0.01639 0.02715,0.0349 0.04073,0.05293 0.0096,0.01342 0.02261,0.02536 0.03054,0.03999 0.01303,0.02252 0.02031,0.04618 0.02943,0.06984 0.0045,0.01298 0.0124,0.02476 0.01582,0.03829 a 0.45754741,0.45559218 0 0 1 0.01582,0.117704 v 11.5778961 l 4.529106,-2.596705 v -5.9187561 c 0,-0.03941 0.0064,-0.0794 0.01497,-0.11713 0.0043,-0.01342 0.01064,-0.02536 0.01497,-0.03829 0.0085,-0.02364 0.0171,-0.04787 0.02951,-0.06985 0.0085,-0.01469 0.02137,-0.02648 0.03056,-0.03999 0.01283,-0.01809 0.02501,-0.03661 0.04062,-0.05239 0.01283,-0.01298 0.0295,-0.02252 0.04403,-0.03381 0.0171,-0.01342 0.03163,-0.02817 0.04982,-0.03887 h 5.76e-4 l 5.4357076,-3.115935 a 0.45302285,0.45108696 0 0 1 0.452463,0 l 5.43513,3.115935 c 0.01924,0.01122 0.03396,0.02536 0.05084,0.03829 0.01494,0.01122 0.03057,0.02141 0.04359,0.03379 0.01494,0.01639 0.02716,0.0349 0.04062,0.05293 0.01064,0.01362 0.02265,0.02536 0.03057,0.03999 0.0128,0.02195 0.02139,0.04616 0.02953,0.06984 0.0045,0.01298 0.0128,0.02477 0.01494,0.03829 z m -0.890202,6.0358931 v -5.1382251 l -1.902025,1.090269 -2.627645,1.5064381 v 5.138223 l 4.530225,-2.596705 z m -5.43515,9.294869 v -5.141603 L 11.918059,-0.70249189 4.5373404,3.4918861 v 5.190036 z M -6.3329496,-14.526814 V 2.9692781 l 9.964245,5.712082 v -5.18891 l -5.205523,-2.93347499 -0.0017,-0.0011 -0.0023,-0.0011 c -0.01753,-0.01017 -0.03224,-0.02477 -0.04865,-0.03716 -0.01411,-0.01122 -0.03055,-0.02021 -0.04299,-0.03267 l -0.0011,-0.0017 c -0.01474,-0.01406 -0.02489,-0.03154 -0.03733,-0.0473 -0.01134,-0.0151 -0.02489,-0.02816 -0.03392,-0.04394 l -5.64e-4,-0.0016 c -0.01029,-0.01682 -0.01646,-0.03718 -0.02375,-0.05633 -0.0073,-0.01682 -0.01689,-0.03267 -0.02148,-0.05068 v -5.61e-4 c -0.0055,-0.02139 -0.0068,-0.04394 -0.009,-0.06589 -0.0023,-0.01682 -0.0068,-0.03378 -0.0068,-0.05068 v -0.0011 -12.09712811 l -2.627073,-1.507002 -1.902018,-1.089141 z m 4.982688,-3.375549 -4.528532,2.59558 4.527399,2.595579 4.527971,-2.596142 -4.527971,-2.595017 z m 2.355041,16.1985831 2.627081,-1.505877 V -14.526814 l -1.902021,1.090268 -2.62764397,1.506438 v 11.31715811 z m 13.9509496,-13.1355851 -4.527956,2.595581 4.527956,2.5955791 4.527401,-2.5961431 z m -0.453021,5.9722561 -2.627636,-1.5064381 -1.9020306,-1.090269 v 5.1382251 l 2.6270806,1.505877 1.902586,1.090828 z m -10.4189566,11.579025 6.6415096,-3.77539 3.319896,-1.886569 -4.5245576,-2.59389 -5.209487,2.98641 -4.74797597,2.72172701 z"
       fill="#ff2d20"
       fill-rule="evenodd"
       id="path4"
       style="fill:#253855;fill-opacity:1;stroke-width:0.264583;filter:url(#filter2603)" />
  </g>
</svg>
