<?xml version="1.0" encoding="UTF-8" standalone="no"?>
<svg
   class="edit"
   width="32"
   height="32"
   version="1.1"
   viewBox="0 0 8.4667 8.4667"
   id="svg6"
   sodipodi:docname="pencil.svg"
   inkscape:version="1.1 (c68e22c387, 2021-05-23)"
   xmlns:inkscape="http://www.inkscape.org/namespaces/inkscape"
   xmlns:sodipodi="http://sodipodi.sourceforge.net/DTD/sodipodi-0.dtd"
   xmlns="http://www.w3.org/2000/svg"
   xmlns:svg="http://www.w3.org/2000/svg">
  <defs
     id="defs10">
    <filter
       style="color-interpolation-filters:sRGB;"
       inkscape:label="Drop Shadow"
       id="filter958"
       x="-2.2060375"
       y="-0.43316777"
       width="5.8206005"
       height="1.9465518">
      <feFlood
         flood-opacity="0.501961"
         flood-color="rgb(0,0,0)"
         result="flood"
         id="feFlood948" />
      <feComposite
         in="flood"
         in2="SourceGraphic"
         operator="out"
         result="composite1"
         id="feComposite950" />
      <feGaussianBlur
         in="composite1"
         stdDeviation="0.9"
         result="blur"
         id="feGaussianBlur952" />
      <feOffset
         dx="0.4"
         dy="0.4"
         result="offset"
         id="feOffset954" />
      <feComposite
         in="offset"
         in2="SourceGraphic"
         operator="in"
         result="composite2"
         id="feComposite956" />
    </filter>
  </defs>
  <sodipodi:namedview
     id="namedview8"
     pagecolor="#505050"
     bordercolor="#ffffff"
     borderopacity="1"
     inkscape:pageshadow="0"
     inkscape:pageopacity="0"
     inkscape:pagecheckerboard="1"
     showgrid="false"
     inkscape:zoom="12.109204"
     inkscape:cx="11.767908"
     inkscape:cy="19.11769"
     inkscape:window-width="1366"
     inkscape:window-height="705"
     inkscape:window-x="-8"
     inkscape:window-y="-8"
     inkscape:window-maximized="1"
     inkscape:current-layer="svg6" />
  <g
     id="g1268"
     transform="translate(-0.58061954)">
    <path
       d="m 14.768,-0.24414 -0.0078,2.6484 5.4375,0.015625 0.0078,-2.6484 z m -0.01172,4.1641 -0.07031,22.176 5.4336,0.01758 -0.002,0.69336 -0.89648,-0.002 0.89648,1.5273 0.07617,-24.395 z m 5.3613,24.412 -1.8125,0.01367 -1.8145,0.0098 -1.8105,0.01172 c 0.96842,1.3075 1.6468,2.4878 2.5352,3.6328 z m -5.4375,0.03516 0.89453,-1.5742 -0.89062,-0.002 z m 0.89453,-1.5742 0.91602,1.5625 0.88672,-1.5586 z m 2.7305,1.5527 0.87695,-1.543 -1.7852,-0.0059 z"
       fill-opacity="0.84516"
       id="path2"
       sodipodi:nodetypes="ccccccccccccccccccccccccccccccc"
       style="fill:#2b4163;fill-opacity:1"
       transform="scale(0.26458)" />
    <path
       d="m 4.1379371,1.548283 -0.012486,3.9380729 0.9649131,0.00312 -3.551e-4,0.1231287 -0.1591993,-3.552e-4 0.1591993,0.2712219 0.013526,-4.3321288 z m 0.9520738,4.3351477 -0.3218685,0.00243 -0.3222237,0.00174 -0.3215134,0.00208 c 0.171974,0.2321899 0.2924425,0.4417906 0.450207,0.6451227 z M 4.124404,5.8896745 4.283257,5.6101239 4.1250984,5.6097688 Z M 4.283257,5.6101239 4.4459263,5.8875968 4.6033924,5.6108165 Z m 0.4848895,0.2757326 0.1557311,-0.27401 -0.3170206,-0.00105 z"
       fill-opacity="0.84516"
       id="path2-7"
       sodipodi:nodetypes="cccccccccccccccccccccccccc"
       style="stroke-width:0.26458;filter:url(#filter958)" />
    <path
       d="M 2.2914,7.0503 3.24644,6.69944 3.45455,7.69538 2.29135,7.0503"
       fill="none"
       id="path4" />
  </g>
</svg>
